<?xml version="1.0" encoding="utf-8"?>
<!-- Generator: Adobe Illustrator 23.0.2, SVG Export Plug-In . SVG Version: 6.00 Build 0)  -->
<svg version="1.1" id="Layer_1" xmlns="http://www.w3.org/2000/svg" xmlns:xlink="http://www.w3.org/1999/xlink" x="0px" y="0px"
	 viewBox="0 0 595.3 597.6" style="enable-background:new 0 0 595.3 597.6;" xml:space="preserve">
<style type="text/css">
	.st0{fill:url(#SVGID_1_);}
	.st1{fill:#FFFFFF;}
</style>
<g id="PathID_1" transform="matrix(0.821341, -0.0320637, 0.0231694, 0.593505, 24.75, 25.05)">
	
		<linearGradient id="SVGID_1_" gradientUnits="userSpaceOnUse" x1="2798.2427" y1="49089.2773" x2="23572.3047" y2="49089.2773" gradientTransform="matrix(-5.939187e-04 1.922527e-02 7.294483e-03 4.331985e-04 -33.0535 42.7257)">
		<stop  offset="0" style="stop-color:#5A5C6C"/>
		<stop  offset="1" style="stop-color:#1E2030"/>
	</linearGradient>
	<path class="st0" d="M317.1,30.8l109.7,24.2l1.3-5.1c15.4-19.9,23.9-16,25.7,11.4L492.9,81l5.1,29.2l32.7-35.4
		c11.5-11,17.7-9.7,18.6,3.8l-8.3,44.4l21.8,14.6l3.9,44.4l53.2,40l-25.6,64c15,11.4,34.9,8.9,59.7-7.6c20.5-14.4,30.8-11,30.8,10.2
		l-42.3,51.3l22.5,21.6l-34,56.4l34,46.9L645,492.5l-7.7,43.7l41.7,38.1l-37.8,29.8l-1.3,1.9c-6.4,8-3.8,15.9,7.7,23.5L615,704.2
		l0.6,36.8l-81.4,24l-5.8,35.5l-47.5,5.7l-19.9,38l-52.6-39.3l-59,5.7l-0.6,39.9l-7.7,17.7L293,851.1l-11.5,128.7l0.6-116L234,834.6
		l-13.5,14.6L97.4,834.6l-16.7-24.7L49.9,844l-25.6,4.4l-9-31.1l39.8-16.5l28.8-34.2l4.5-52.6l-41.1-15.9l-16.7-38.7l-44.3-11.4
		l45.5-90L0.4,524.5l-44.3-16.5l33.3-46.9l-11.6-61.5c41-50.7,61.1-111.3,60.2-181.9l56.5,24.8l24.4-17.7l-16.1-101.4l66.7,4.5
		l2.6-43.7L187.6,63l30.2,34.9l25-13.3L246.6-25L288.3,65L317.1,30.8 M581.4,20.1c4.3,4.2,6.4,9.9,6.4,17.1c0,6.8-2.1,12.9-6.4,18.4
		c-4.7,5.1-9.6,7.6-14.8,7.6c-6,0-10.9-2.5-14.8-7.6c-4.3-5.5-6.4-11.6-6.4-18.4c0-7.2,2.1-12.9,6.4-17.1c3.8-5.5,8.8-8.2,14.8-8.2
		C571.8,11.9,576.7,14.7,581.4,20.1"/>
</g>
<g id="PathID_2" transform="matrix(0.821341, -0.0320637, 0.0231694, 0.593505, 24.75, 25.05)">
</g>
<g id="PathID_4" transform="matrix(0.527439, 0, 0, 0.625426, 49.35, 34.95)">
</g>
<g id="PathID_6" transform="matrix(0.527439, 0, 0, 0.625426, 67.3, 34.95)">
</g>
<g id="PathID_8" transform="matrix(0.527439, 0, 0, 0.625426, 86.2, 34.95)">
</g>
<g id="PathID_10" transform="matrix(0.527439, 0, 0, 0.625426, 103.8, 34.95)">
</g>
<g id="PathID_12" transform="matrix(0.527439, 0, 0, 0.625426, 121.8, 34.95)">
</g>
<g id="PathID_14" transform="matrix(0.527439, 0, 0, 0.625426, 133.85, 34.95)">
</g>
<g id="PathID_16" transform="matrix(0.527439, 0, 0, 0.625426, 152.45, 34.95)">
</g>
<g id="PathID_18" transform="matrix(0.527439, 0, 0, 0.625426, 170.65, 34.95)">
</g>
<g id="PathID_19" transform="matrix(0.625426, 1.09353e-007, 0, 0.625426, 12.15, 36.3)">
	<path class="st1" d="M213.1,629.9l11.5-14l-11.5,1.9V629.9 M260.6,596.3l-4.5,11.4l7.1,21.5l1.9-8.9l1.9-12l-1.9-8.9
		C262.1,598.2,260.6,597.1,260.6,596.3 M383.7,541.7l-8.3-64.7l2.6,108.4L383.7,541.7 M307.4,422.6l-9,19.7l-6.4,24.1l-7.7,17.7
		l-16,42.5l4.5-3.2l-3.2,5.1l-1.3-0.6l-5.1,31.1l7.1-19l36.6-93.8l7.7-19h-1.9h-5.1V422.6 M612.7,434.6v3.2l1.3-1.9l-15.4,57.1
		l-1.3,10.1l-5.8,22.2l2.6,24.7l-9.6-5.7v38l1.3-1.9l9.6-0.6l-0.6-19l-0.6-10.8l0.6,0.6v-1.9l1.9-12.7l6.4-26l5.1-17.1v-14.6
		l3.2-15.8l3.2-5.1l5.8-23.5l-2.6-11.4h-2.6L612.7,434.6 M596,571.6l3.2-19H598l-3.2-1.9v10.1L596,571.6 M553.7,435.9l3.2-1.9
		l3.2-11.4l1.3,4.5l3.2-4.5l3.2-6.3l3.2-0.6v-3.8l1.3-0.6l-5.1-9.5l-7.7,8.2L553.7,435.9 M558.8,441l1.3-7.6l-0.6,7l4.5-6.3l-2.6-7
		l-4.5,7l-4.5,15.8l2.6-3.2L558.8,441l-4.5,29.8l1.9-3.8l-5.1,43.1l-2.6,16.5l5.8-33l5.8-9.5l-8.3,36.8l-1.9,9.5l-2.6,7.6l1.3-11.4
		l-1.9,12.7l-0.6,7l-1.9,6.3v21.6l0.6,1.3v-20.3l1.3-8.9l1.9-6.3l1.9-9.5l16-44.4l3.8-17.1l-9.6,15.2l5.8-24.7h0.6l-0.6,4.5l1.3-4.5
		l4.5,1.3l0.6-2.5l8.3-29.2l1.3-9.5l3.2-8.9l-2.6,4.4l-5.1-10.8l-6.4,34.3L556.3,467l3.2-26.6L558.8,441 M572.9,516.4v-3.8l7.7-5.1
		l0.6-9.5l2.6-9.5l2.6-4.5l1.9,6.3l1.9-13.3l-3.9,7l-0.6-3.2l23.7-91.3l-5.1-24.1l-3.9,12.1l1.9,1.9l-1.3,10.1l1.9-1.3l-3.2,7
		l-7,24.1l-1.9,1.3l-9,46.9l3.8,13.3l-1.9,7.6l-10.9,19v5.1l-3.9,2.5l-3.8,28.5c0,2.5,0.6,4.5,1.9,5.7l-1.9,10.8l1.3,10.1v18.4
		l3.2,7l6.4-0.6l0.6,1.3l0.6-8.2h-2.6l-1.9-11.4v-34.3h2.6l3.9-25.3 M583.2,517.7v-11.4l-2.6,1.3v1.9l-1.3,7.6l-6.4-0.6L583.2,517.7
		 M310.6,373.1l-5.8,19.7l-8.3,22.8l-9,22.2l-2.6,7l-10.3,29.8l2.6,0.6l-1.3,2.5l-5.1,7l14.1-7.6l-7.7-1.9l22.5-55.8l18.6-41.2
		l6.4-1.9l2.6-15.2l0.6-0.6l2.6-5.7l-10.9,1.3l-0.6-3.8l-3.8,10.8L310.6,373.1 M558.8,514.5l-3.2,34.2h7.7l2.6-24.7l12.8-62.1
		l-7.1-1.3l-1.9,8.2l4.5-7l-8.3,24.1L558.8,514.5 M607.6,293.2l-7.7,22.8l-9.6,19.6L573.6,356l19.2-51.4l3.2-12l13.5-5.7
		L607.6,293.2 M376.7,221l3.2,38.1l-1.3-1.3v15.2l3.2,8.9l-1.9-22.8l16.7,16.5l1.9,12.7l2.6,17.1l1.3,8.9l5.1,36.1l8.3,55.8
		l1.3,20.9l2.6,7.6v17.7l3.9,37.4l-2.6-5.7l-9-55.1l-10.3,1.9l0.6,10.1l18.6,43.1l1.9,10.8l1.9,10.8l-1.3,3.8l-9-16.5l2.6,37.4
		l6.4-20.9l9.6,17.1v18.4l3.8,34.9l-1.3,1.9l1.9,5.1l-0.7-7l17.3-24.1l7-11.4l5.8-5.1l20.5-23.4l-5.8,5.7l37.8-69.1l50.7-77.3
		l19.9-39.3l17.3-21.5l8.3-29.8l-6.4,2.5l1.3-5.1v-7.6l7.7-24.7l19.2-28.5l9,12.1l-4.5,1.9l-2.6,13.9l-0.6,3.8l1.9-5.1l-1.3,1.3
		l2.6-5.7l-1.3,4.4l1.9-1.9l5.1,0.6l-0.6-12.7l-0.6-0.6l12.2-5.7l16.7-15.2l7.1,9.5v0.6l1.3,0.6l-1.3-1.3l1.3-6.3l3.8,2.5l8.3-10.8
		l12.2,8.9l-5.8,28.5l-17.3,67.2l-6.4,15.2l-6.4,6.3l1.3-4.4l-3.2-23.5l-9.6,39.3l11.5-11.4l-9,27.3l-32.1,71l-14.8,58.3l-5.1,23.5
		l6.4,49.5v-20.9l6.4-42.5l14.1-61.5l25-77.3l7.7-17.1l-27.6,97.6L632,489.1l-1.3,10.2l-9,46.9v14.6l1.3,0.7l-0.6,13.9l0.6,1.3
		l5.8,4.5l16-10.8l7.7-1.3l29.5-16.5l0.6,2.5l4.5-4.4l8.3,8.9l-7.7,7l1.3,1.3l-10.3,12.7L663.4,595l-5.8,1.3v-1.9l-13.5,3.2h4.5
		l9-1.3l-0.6,12l-19.2,9.5l-23.1,5.7l-4.5,0.6l-5.8,1.3H598v1.3l6.4-1.3h4.5l1.3,2.5h-11.5h-12.2l-33.4-8.2l-5.8-6.3l4.5,3.2
		l-3.2-8.9h1.3l-2.6-10.1l-0.7-1.9l-1.3-8.2l1.9,10.1l7.7,15.9l9-1.9l0.6-1.9l-7.7-5.7l-4.5-11.4l-7.7-17.1v8.3l-0.6-3.8v-5.7
		l-7.7-17.1v26.6l4.5,22.8l6.4,7l-16-10.8l-1.9-20.3v-12.7c-0.4-0.4-0.4-0.8,0-1.3c-0.9-0.8-1.3-2.8-1.3-5.7l2.6-20.3l3.2-15.2
		l-0.6-3.2l1.9-6.4l1.3-10.1l16-57.7l-3.2,4.4l-5.8,15.2l-3.9-0.6l-5.8,12.1l-10.9,17.7l-8.3,10.8l-10.9,19l-9,10.2l-4.5,8.9
		l-3.8,0.7l-3.9-1.9l-3.9,1.9h7.7l5.1,2.5l-5.8,15.2l-12.8,20.9l-18,29.8l-7.1,7.6l3.2,0.6v12.1l-8.3,0.6l-5.8,5.1v5.1l-8.3,1.3
		l-1.3,2.5l-26.3,15.8v0.6v1.9h-1.9h-0.6c-4.3,1.7-7.9,2.5-10.9,2.5c-5.6,0-9.4-2.7-11.5-8.3l-5.8-12l-1.9-17.1l3.8,3.8L357.4,550
		l-3.2-40.6l19.2,63.4v13.3l5.1,29.8l1.9,35.5l0.7-17.8 M582.6,415.6l-0.6,3.8l-14.8,39.9h-0.6l3.8-17.8l0.6-3.2L582.6,415.6
		 M268.3,489.8l-3.9,12.7l-12.2,37.4l-1.3,8.9l13.5-46.3l5.1-15.2L268.3,489.8 M378.6,615.9l-0.6-8.9l5.1-0.6v-2.6l-1.3-1.3
		l-0.6-3.2l-7.7-26.6l-1.3-33.6l3.2,5.7l-0.6-20.3l0.6-1.3l-1.3-9.5l-2.6-20.9l0.6,46.3l-14.1-29.8l-10.9-34.2l-1.3-15.3l-2.6-14.5
		l12.8,22.2l-6.4-55.2l-8.3,22.2l1.9,10.8l-5.8-10.2l-0.7,1.9v-1.9H335l-1.9-3.2l0.6-0.7l6.4-1.9l-7.7,1.3l0.6,1.3l-3.8,3.2h5.8
		l1.3,3.2l0.6-1.3l-0.6,9.5L326,463.1L277.9,583l-14.1,60.9l-1.3-3.2l0.6,6.3l-2.6-0.6l-0.6,11.4l0.6,9.5l-7.7-1.9v-3.2l-1.9,0.6
		l1.3,2.5l-3.9-0.6l0.7-1.9h1.9l-1.3-1.9l-0.6,1.9l-4.5,0.6l3.8,1.3l-2.6,8.3l-7.1-15.9l5.1,1.3l-9.6-19.7v8.9l4.5,9.5l-4.5-0.6
		l-14.1,7.6l-0.6-12.7l-9.6,17.1l-1.9-23.5l-3.9-15.2l-6.4-60.2l11.5,19.6l1.3-7l-2.6-20.9l-0.6-11.4h2.6l-1.3-8.9l3.2,3.2l-1.9-14
		l2.6,0.6l0.6-7.6l-1.9-34.3l21.8,8.3l1.3,8.9l-3.2,5.7l-4.5-3.8l1.9,9.5l2.6-5.7l8.3,7l5.1-4.5l-3.8,8.2l-3.2-0.6v8.2l3.2-7.6h1.9
		l2.6-8.9l14.8-34.9l25-42.5l2.6,1.3l0.6-7l-3.2,5.7l-7.1-3.8l0.7-7l4.5-5.1l-0.6,2.5l7.1-12.1L283,420l10.9-33.6l18.6-24.1
		l-1.9-20.9v-10.1l7.7-9.5l5.1-13.3l6.4-37.4l-1.9-10.1l-0.6-33l13.5,20.9l-1.3-6.3l4.5-19.7l3.8,8.3v-5.7c0.9-1.7,2.1-3.2,3.9-4.4
		l0.7-1.3c3-3.4,6-5.3,9-5.7l2.6,19l5.8-16.5 M383.7,647l10.9-7l-7.1-34.3l-4.5,0.7l-1.9,27.2l-2.6-17.8L383.7,647 M211.2,602.6h5.1
		l-1.3-2.6l-5.8-10.1L211.2,602.6 M365.1,214h-3.2h-0.6v-1.9L365.1,214 M365.1,214l5.1,0.6l-0.6,1.9l7,4.4L365.1,214"/>
</g>
<g id="PathID_20" transform="matrix(0.625426, 1.09353e-007, 0, 0.625426, 12.15, 36.3)">
</g>
</svg>
